<?xml version="1.0" encoding="UTF-8"?>
<svg id="Layer_2" data-name="Layer 2" xmlns="http://www.w3.org/2000/svg" xmlns:xlink="http://www.w3.org/1999/xlink" viewBox="0 0 2000 1166.4">
  <defs>
    <style>
      .cls-1 {
        fill: #31afd4;
        fill-rule: evenodd;
      }

      .cls-1, .cls-2, .cls-3, .cls-4, .cls-5, .cls-6 {
        stroke-width: 0px;
      }

      .cls-2 {
        fill: url(#linear-gradient);
      }

      .cls-7 {
        mask: url(#mask-2);
      }

      .cls-8 {
        mask: url(#mask-3);
      }

      .cls-3 {
        fill: url(#linear-gradient-5);
      }

      .cls-4 {
        fill: url(#linear-gradient-2);
      }

      .cls-9 {
        mask: url(#mask-4);
      }

      .cls-5 {
        fill: url(#linear-gradient-3);
      }

      .cls-10 {
        mask: url(#mask-1);
      }

      .cls-11 {
        mask: url(#mask);
      }

      .cls-6 {
        fill: url(#linear-gradient-4);
      }
    </style>
    <linearGradient id="linear-gradient" x1="-944.62" y1="4242.11" x2="-1429.61" y2="3724.62" gradientTransform="translate(2615.4 -2579.43)" gradientUnits="userSpaceOnUse">
      <stop offset="0" stop-color="#fff"/>
      <stop offset="1" stop-color="#000"/>
    </linearGradient>
    <mask id="mask" x="0" y="727.53" width="2000" height="438.87" maskUnits="userSpaceOnUse">
      <rect class="cls-2" y="727.53" width="2000" height="438.87"/>
    </mask>
    <linearGradient id="linear-gradient-2" x1="-1468.62" y1="3963.59" x2="-1618.63" y2="3418.89" gradientTransform="translate(2615.4 -2684.39)" xlink:href="#linear-gradient"/>
    <mask id="mask-1" x="0" y="501" width="2000" height="490.43" maskUnits="userSpaceOnUse">
      <rect class="cls-4" y="501" width="2000" height="490.43"/>
    </mask>
    <linearGradient id="linear-gradient-3" x1="-1605.05" y1="3826.1" x2="-1615.05" y2="3221.02" gradientTransform="translate(2615.4 -2804.51)" xlink:href="#linear-gradient"/>
    <mask id="mask-2" x="0" y="0" width="2000" height="791.22" maskUnits="userSpaceOnUse">
      <rect class="cls-5" width="2000" height="791.22"/>
    </mask>
    <linearGradient id="linear-gradient-4" x1="-1726.49" y1="3781.79" x2="-1589.52" y2="3098.17" gradientTransform="translate(2615.4 -2968.03)" xlink:href="#linear-gradient"/>
    <mask id="mask-3" x="0" y="0" width="2000" height="518.65" maskUnits="userSpaceOnUse">
      <rect class="cls-6" width="2000" height="518.65"/>
    </mask>
    <linearGradient id="linear-gradient-5" x1="-1782.17" y1="3413.51" x2="-1622.17" y2="3101.01" gradientTransform="translate(3116.9 -3110.53)" xlink:href="#linear-gradient"/>
    <mask id="mask-4" x="835.78" y="0" width="1164.22" height="281.12" maskUnits="userSpaceOnUse">
      <rect class="cls-3" x="835.78" y="0" width="1164.22" height="281.12"/>
    </mask>
  </defs>
  <g id="Layer_1-2" data-name="Layer 1">
    <g>
      <g class="cls-11">
        <path class="cls-1" d="m2000,746.18c-281.63-145.13-1316.2,624.17-2000-7.5v427.72h1000c644.87-22.5,554.52-352.66,1000-290.2v-130.02Z"/>
      </g>
      <g class="cls-10">
        <path class="cls-1" d="m0,738.68c683.8,631.67,1718.37-137.63,2000,7.5v-112.52c-333.69-392.3-1166.74,382.19-1620.46,90.01C197.05,606.16,172.93,461.14,0,511.15v227.53Z"/>
      </g>
      <g class="cls-7">
        <path class="cls-1" d="m379.54,723.68c453.72,292.18,1286.78-482.31,1620.46-90.01v-115.01C1816.49-6.4,62.88,1024,0,0v511.15c172.93-50.01,197.05,95.01,379.54,212.53"/>
      </g>
      <g class="cls-8">
        <path class="cls-1" d="m0,0c62.88,1024,1816.49-6.4,2000,518.65v-237.53s-90.55-232.53-643.02-195.03c0,0-330.5,12.71-521.2-86.09H0Z"/>
      </g>
      <g class="cls-9">
        <path class="cls-1" d="m835.78,0c190.69,98.81,521.2,86.09,521.2,86.09,552.47-37.5,643.02,195.03,643.02,195.03V0H835.78Z"/>
      </g>
    </g>
  </g>
</svg>